<svg width="30" height="30" viewBox="0 0 30 30" fill="none" xmlns="http://www.w3.org/2000/svg">
<mask id="mask0_34_654" style="mask-type:alpha" maskUnits="userSpaceOnUse" x="0" y="0" width="30" height="30">
<rect width="30" height="30" fill="#D9D9D9"/>
</mask>
<g mask="url(#mask0_34_654)">
<path d="M15.2331 21.1516L25.6178 10.7669C25.6738 10.7108 25.7019 10.6427 25.7019 10.5625C25.7019 10.4823 25.6738 10.4142 25.6178 10.3581L24.4015 9.14188C24.3453 9.08584 24.2772 9.05782 24.1972 9.05782C24.117 9.05782 24.0488 9.08584 23.9928 9.14188L13.6081 19.5266L15.2331 21.1516ZM7.38936 23.4134C5.5304 23.3093 4.13457 22.8958 3.20186 22.1731C2.26915 21.4504 1.8028 20.4279 1.8028 19.1056C1.8028 17.8398 2.33405 16.813 3.39655 16.0253C4.45905 15.2376 5.93582 14.7604 7.82686 14.5938C8.73561 14.5152 9.41717 14.3509 9.87155 14.1009C10.3257 13.8509 10.5528 13.5048 10.5528 13.0625C10.5528 12.4488 10.2455 11.9804 9.63092 11.6575C9.01634 11.3346 8.00873 11.1026 6.60811 10.9616L6.77873 9.09844C8.70019 9.28115 10.1221 9.69542 11.0444 10.3413C11.9667 10.9871 12.4278 11.8942 12.4278 13.0625C12.4278 14.0544 12.0469 14.8408 11.285 15.4219C10.5229 16.0027 9.41665 16.3517 7.96623 16.4688C6.53686 16.589 5.46477 16.8678 4.74998 17.3053C4.03519 17.7428 3.6778 18.3429 3.6778 19.1056C3.6778 19.8829 3.9755 20.4612 4.57092 20.8403C5.16634 21.2193 6.13144 21.452 7.46623 21.5384L7.38936 23.4134ZM15.5262 23.5119L11.2475 19.2331L22.9206 7.57219C23.2892 7.20365 23.7199 7.02136 24.2128 7.02532C24.7055 7.02927 25.1361 7.21157 25.5047 7.57219L27.1875 9.25469C27.556 9.62344 27.7403 10.0562 27.7403 10.5528C27.7403 11.0497 27.556 11.4824 27.1875 11.8509L15.5262 23.5119ZM11.3509 24.375C11.0688 24.4423 10.8205 24.3685 10.6059 24.1538C10.3911 23.939 10.3174 23.6906 10.3847 23.4088L11.2475 19.2331L15.5262 23.5119L11.3509 24.375Z" fill="#4A6BF0"/>
</g>
</svg>
