<svg width="30" height="30" viewBox="0 0 30 30" fill="none" xmlns="http://www.w3.org/2000/svg">
<mask id="mask0_34_660" style="mask-type:alpha" maskUnits="userSpaceOnUse" x="0" y="0" width="30" height="30">
<rect width="30" height="30" fill="#D9D9D9"/>
</mask>
<g mask="url(#mask0_34_660)">
<path d="M15.0625 24.6875C12.3589 24.6875 10.0581 23.7468 8.15999 21.8653C6.26165 19.9839 5.31249 17.6954 5.31249 15V14.0241L2.99999 16.3366L1.6828 15.0194L6.24999 10.4519L10.8172 15.0194L9.49999 16.3366L7.18749 14.0241V15C7.18749 17.1715 7.95186 19.0165 9.48061 20.535C11.0096 22.0533 12.8702 22.8125 15.0625 22.8125C15.5802 22.8125 16.0974 22.756 16.6141 22.6431C17.1309 22.53 17.6354 22.3605 18.1275 22.1347L19.5337 23.5409C18.8302 23.9191 18.1038 24.2047 17.3547 24.3978C16.6053 24.5909 15.8412 24.6875 15.0625 24.6875ZM23.75 19.5481L19.1828 14.9806L20.5 13.6634L22.8125 15.9759V15C22.8125 12.8285 22.0481 10.9835 20.5194 9.465C18.9904 7.94667 17.1298 7.1875 14.9375 7.1875C14.4198 7.1875 13.9026 7.24396 13.3859 7.35687C12.8691 7.47 12.3646 7.63948 11.8725 7.86531L10.4662 6.45906C11.1698 6.08094 11.8961 5.79531 12.6453 5.60219C13.3947 5.40906 14.1587 5.3125 14.9375 5.3125C17.641 5.3125 19.9419 6.25323 21.84 8.13469C23.7383 10.0161 24.6875 12.3046 24.6875 15V15.9759L27 13.6634L28.3172 14.9806L23.75 19.5481Z" fill="#4A6BF0"/>
</g>
</svg>
