<svg width="52" height="38" viewBox="0 0 52 38" fill="none" xmlns="http://www.w3.org/2000/svg">
<path d="M2 37.2488C0.895427 37.2488 0 36.3534 0 35.2488V31.5827C0 30.2693 0.338961 29.0972 1.01688 28.0663C1.69481 27.0354 2.60019 26.2334 3.73304 25.6604C6.15504 24.4757 8.59042 23.5623 11.0392 22.92C13.4884 22.2782 16.1799 21.9573 19.1137 21.9573C22.048 21.9573 24.7395 22.2782 27.1883 22.92C29.6375 23.5623 32.0731 24.4757 34.4951 25.6604C35.6279 26.2334 36.5333 27.0354 37.2112 28.0663C37.8891 29.0972 38.2281 30.2693 38.2281 31.5827V35.2488C38.2281 36.3534 37.3327 37.2488 36.2281 37.2488H2ZM45.3253 37.2488C44.2207 37.2488 43.3253 36.3534 43.3253 35.2488V31.2692C43.3253 29.5965 42.9158 28.0021 42.0968 26.4861C42.0554 26.4095 42.0131 26.3334 41.9699 26.2578C41.3358 25.1488 42.2708 23.3486 43.4775 23.7681C45.0131 24.3024 46.4785 24.9338 47.8738 25.6623C49.1906 26.3649 50.2075 27.1929 50.9245 28.1465C51.6415 29.0997 52 30.1406 52 31.2692V35.2488C52 36.3534 51.1046 37.2488 50 37.2488H45.3253ZM19.1137 17.8401C16.6607 17.8401 14.5609 16.9668 12.8143 15.2201C11.0676 13.4731 10.1943 11.373 10.1943 8.92004C10.1943 6.46703 11.0676 4.36721 12.8143 2.62058C14.5609 0.873527 16.6607 0 19.1137 0C21.5667 0 23.6668 0.873527 25.4138 2.62058C27.1605 4.36721 28.0338 6.46703 28.0338 8.92004C28.0338 11.373 27.1605 13.4731 25.4138 15.2201C23.6668 16.9668 21.5667 17.8401 19.1137 17.8401ZM41.1195 8.92004C41.1195 11.373 40.2462 13.4731 38.4995 15.2201C36.7529 16.9668 34.6531 17.8401 32.2001 17.8401C31.9125 17.8401 31.5466 17.8074 31.1023 17.742C30.584 17.6657 30.3835 17.0666 30.6848 16.6381C31.3652 15.6702 31.9108 14.6258 32.3218 13.5049C32.8612 12.0323 33.1309 10.5031 33.1309 8.91749C33.1309 7.33142 32.8557 5.808 32.3052 4.34724C31.8872 3.23846 31.3445 2.19653 30.677 1.22145C30.3644 0.764825 30.552 0.11798 31.1023 0.0592541C31.468 0.019751 31.8339 0 32.2001 0C34.6531 0 36.7529 0.873527 38.4995 2.62058C40.2462 4.36721 41.1195 6.46703 41.1195 8.92004Z" fill="black"/>
</svg>
