<svg width="30" height="30" viewBox="0 0 30 30" fill="none" xmlns="http://www.w3.org/2000/svg">
<mask id="mask0_36_750" style="mask-type:alpha" maskUnits="userSpaceOnUse" x="0" y="0" width="30" height="30">
<rect width="30" height="30" fill="#D9D9D9"/>
</mask>
<g mask="url(#mask0_36_750)">
<path d="M14.9759 26.875C13.3557 26.875 11.8253 26.5629 10.3847 25.9387C8.94385 25.3146 7.68583 24.4648 6.61062 23.3894C5.53521 22.3142 4.68542 21.0542 4.06125 19.6094C3.43708 18.1646 3.125 16.6281 3.125 15C3.125 13.351 3.44552 11.8042 4.08656 10.3594C4.7276 8.91458 5.59823 7.65781 6.69844 6.58906C7.79844 5.5201 9.08531 4.67552 10.5591 4.05531C12.0326 3.4351 13.6043 3.125 15.2741 3.125C16.8366 3.125 18.3173 3.39146 19.7162 3.92438C21.1154 4.45729 22.3442 5.1949 23.4025 6.13719C24.461 7.07948 25.3044 8.19927 25.9325 9.49656C26.5608 10.7936 26.875 12.2002 26.875 13.7162C26.875 15.8798 26.232 17.5721 24.9459 18.7931C23.6599 20.0144 22.0112 20.625 20 20.625H17.7356C17.3798 20.625 17.0953 20.7411 16.8822 20.9734C16.6691 21.2059 16.5625 21.4808 16.5625 21.7981C16.5625 22.1844 16.7188 22.5858 17.0312 23.0025C17.3438 23.4192 17.5 23.8975 17.5 24.4375C17.5 25.2627 17.2717 25.8753 16.815 26.2753C16.3581 26.6751 15.7451 26.875 14.9759 26.875ZM8.125 15.9375C8.57042 15.9375 8.94219 15.7884 9.24031 15.4903C9.53844 15.1922 9.6875 14.8204 9.6875 14.375C9.6875 13.9296 9.53844 13.5578 9.24031 13.2597C8.94219 12.9616 8.57042 12.8125 8.125 12.8125C7.67958 12.8125 7.30781 12.9616 7.00969 13.2597C6.71156 13.5578 6.5625 13.9296 6.5625 14.375C6.5625 14.8204 6.71156 15.1922 7.00969 15.4903C7.30781 15.7884 7.67958 15.9375 8.125 15.9375ZM11.875 10.9375C12.3204 10.9375 12.6922 10.7884 12.9903 10.4903C13.2884 10.1922 13.4375 9.82042 13.4375 9.375C13.4375 8.92958 13.2884 8.55781 12.9903 8.25969C12.6922 7.96156 12.3204 7.8125 11.875 7.8125C11.4296 7.8125 11.0578 7.96156 10.7597 8.25969C10.4616 8.55781 10.3125 8.92958 10.3125 9.375C10.3125 9.82042 10.4616 10.1922 10.7597 10.4903C11.0578 10.7884 11.4296 10.9375 11.875 10.9375ZM18.125 10.9375C18.5704 10.9375 18.9422 10.7884 19.2403 10.4903C19.5384 10.1922 19.6875 9.82042 19.6875 9.375C19.6875 8.92958 19.5384 8.55781 19.2403 8.25969C18.9422 7.96156 18.5704 7.8125 18.125 7.8125C17.6796 7.8125 17.3078 7.96156 17.0097 8.25969C16.7116 8.55781 16.5625 8.92958 16.5625 9.375C16.5625 9.82042 16.7116 10.1922 17.0097 10.4903C17.3078 10.7884 17.6796 10.9375 18.125 10.9375ZM21.875 15.9375C22.3204 15.9375 22.6922 15.7884 22.9903 15.4903C23.2884 15.1922 23.4375 14.8204 23.4375 14.375C23.4375 13.9296 23.2884 13.5578 22.9903 13.2597C22.6922 12.9616 22.3204 12.8125 21.875 12.8125C21.4296 12.8125 21.0578 12.9616 20.7597 13.2597C20.4616 13.5578 20.3125 13.9296 20.3125 14.375C20.3125 14.8204 20.4616 15.1922 20.7597 15.4903C21.0578 15.7884 21.4296 15.9375 21.875 15.9375ZM14.9759 25C15.1795 25 15.3385 24.9499 15.4531 24.8497C15.5677 24.7495 15.625 24.6121 15.625 24.4375C15.625 24.1458 15.4688 23.8181 15.1562 23.4544C14.8438 23.0906 14.6875 22.5209 14.6875 21.7453C14.6875 20.8543 14.9896 20.1323 15.5938 19.5794C16.1979 19.0265 16.9375 18.75 17.8125 18.75H20C21.4713 18.75 22.6724 18.319 23.6034 17.4569C24.5345 16.5946 25 15.3477 25 13.7162C25 11.1875 24.0304 9.1026 22.0912 7.46156C20.1523 5.82052 17.8799 5 15.2741 5C12.4168 5 9.9901 5.96875 7.99406 7.90625C5.99802 9.84375 5 12.2083 5 15C5 17.7708 5.97396 20.1302 7.92188 22.0781C9.86979 24.026 12.2211 25 14.9759 25Z" fill="#4A6BF0"/>
</g>
</svg>
