<svg width="30" height="30" viewBox="0 0 30 30" fill="none" xmlns="http://www.w3.org/2000/svg">
<mask id="mask0_34_641" style="mask-type:alpha" maskUnits="userSpaceOnUse" x="0" y="0" width="30" height="30">
<rect width="30" height="30" fill="#D9D9D9"/>
</mask>
<g mask="url(#mask0_34_641)">
<path d="M10.2403 26.875C9.60906 26.875 9.07469 26.6562 8.63719 26.2188C8.19969 25.7812 7.98094 25.2468 7.98094 24.6153V22.0191H5.38469C4.75323 22.0191 4.21875 21.8003 3.78125 21.3628C3.34375 20.9253 3.125 20.3909 3.125 19.7597V17.4519H5V19.7597C5 19.8718 5.03604 19.9639 5.10813 20.0359C5.18021 20.1082 5.2724 20.1444 5.38469 20.1444H7.98094V10.2403C7.98094 9.60906 8.19969 9.07469 8.63719 8.63719C9.07469 8.19969 9.60906 7.98094 10.2403 7.98094H20.1444V5.38469C20.1444 5.2724 20.1082 5.18021 20.0359 5.10813C19.9639 5.03604 19.8718 5 19.7597 5H17.4519V3.125H19.7597C20.3909 3.125 20.9253 3.34375 21.3628 3.78125C21.8003 4.21875 22.0191 4.75323 22.0191 5.38469V7.98094H24.6153C25.2468 7.98094 25.7812 8.19969 26.2188 8.63719C26.6562 9.07469 26.875 9.60906 26.875 10.2403V24.6153C26.875 25.2468 26.6562 25.7812 26.2188 26.2188C25.7812 26.6562 25.2468 26.875 24.6153 26.875H10.2403ZM10.2403 25H24.6153C24.7116 25 24.7997 24.9599 24.8797 24.8797C24.9599 24.7997 25 24.7116 25 24.6153V10.2403C25 10.1443 24.9599 10.0561 24.8797 9.97594C24.7997 9.89573 24.7116 9.85563 24.6153 9.85563H10.2403C10.1443 9.85563 10.0561 9.89573 9.97594 9.97594C9.89573 10.0561 9.85563 10.1443 9.85563 10.2403V24.6153C9.85563 24.7116 9.89573 24.7997 9.97594 24.8797C10.0561 24.9599 10.1443 25 10.2403 25ZM3.125 14.7116V10.4328H5V14.7116H3.125ZM3.125 7.69219V5.38469C3.125 4.75323 3.34375 4.21875 3.78125 3.78125C4.21875 3.34375 4.75323 3.125 5.38469 3.125H7.69219V5H5.38469C5.2724 5 5.18021 5.03604 5.10813 5.10813C5.03604 5.18021 5 5.2724 5 5.38469V7.69219H3.125ZM10.4328 5V3.125H14.7116V5H10.4328Z" fill="#4A6BF0"/>
</g>
</svg>
