<svg width="30" height="30" viewBox="0 0 30 30" fill="none" xmlns="http://www.w3.org/2000/svg">
<mask id="mask0_36_738" style="mask-type:alpha" maskUnits="userSpaceOnUse" x="0" y="0" width="30" height="30">
<rect width="30" height="30" fill="#D9D9D9"/>
</mask>
<g mask="url(#mask0_36_738)">
<path d="M1.73096 25.2885V23.4135H28.2691V25.2885H1.73096ZM5.38471 22.1635C4.75325 22.1635 4.21877 21.9447 3.78127 21.5072C3.34377 21.0697 3.12502 20.5352 3.12502 19.9038V6.92314C3.12502 6.29168 3.34377 5.7572 3.78127 5.3197C4.21877 4.8822 4.75325 4.66345 5.38471 4.66345H24.6153C25.2468 4.66345 25.7813 4.8822 26.2188 5.3197C26.6563 5.7572 26.875 6.29168 26.875 6.92314V19.9038C26.875 20.5352 26.6563 21.0697 26.2188 21.5072C25.7813 21.9447 25.2468 22.1635 24.6153 22.1635H5.38471ZM5.38471 20.2885H24.6153C24.7116 20.2885 24.7997 20.2485 24.8797 20.1685C24.9599 20.0882 25 20 25 19.9038V6.92314C25 6.82689 24.9599 6.73877 24.8797 6.65877C24.7997 6.57856 24.7116 6.53845 24.6153 6.53845H5.38471C5.28846 6.53845 5.20033 6.57856 5.12033 6.65877C5.04012 6.73877 5.00002 6.82689 5.00002 6.92314V19.9038C5.00002 20 5.04012 20.0882 5.12033 20.1685C5.20033 20.2485 5.28846 20.2885 5.38471 20.2885Z" fill="#4A6BF0"/>
</g>
</svg>
